<svg xmlns="http://www.w3.org/2000/svg" width="46" height="46" viewBox="0 0 46 46">
  <g fill="none" fill-rule="evenodd">
    <path d="M23 9.818c3.15 0 5.97 1.08 8.19 2.86l6.13-6.13C33.47 3.13 28.6 1 23 1 14.61 1 7.14 5.98 3.22 13.02l7.51 5.83C12.2 13.13 17.17 9.818 23 9.818z" fill="#EA4335"/>
    <path d="M44.5 23.462c0-1.56-.14-3.13-.43-4.62H23v9.13h12.13c-.52 2.7-2.09 4.98-4.45 6.53l7.01 5.45C41.97 36.13 44.5 30.36 44.5 23.462z" fill="#4285F4"/>
    <path d="M10.73 27.85c-1.13-3.13-1.13-6.57 0-9.7l-7.51-5.83C.7 16.13 0 19.47 0 23c0 3.53.7 6.87 3.22 9.68l7.51-5.83z" fill="#FBBC05"/>
    <path d="M23 45c6.21 0 11.42-2.05 15.23-5.57l-7.01-5.45c-1.95 1.31-4.45 2.09-8.22 2.09-5.83 0-10.8-3.31-12.57-8.02l-7.51 5.83C7.14 40.02 14.61 45 23 45z" fill="#34A853"/>
    <path d="M44.5 23.462c0-1.56-.14-3.13-.43-4.62H23v9.13h12.13c-.52 2.7-2.09 4.98-4.45 6.53l7.01 5.45C41.97 36.13 44.5 30.36 44.5 23.462z" fill-opacity=".15"/>
  </g>
</svg>
